Patient5_TMGait_0pt45_1_left_04_GRF.mot
version=1
nRows=46
nColumns=19
inDegrees=no
endheader
time	F1x	F1y	F1z	M1x	M1y	M1z	F2x	F2y	F2z	M2x	M2y	M2z	EC1x	EC1y	EC1z	EC2x	EC2y	EC2z
5.1	-11.0879	34.6493	0.12264	-12.6122	-3.5883	27.2238	-30.2388	835.6271	-44.0452	331.9377	57.4717	836.4131	-0.0592	0.0182	-0.0073	-0.0462	0.0165	0.9585
5.117	-6.6072	27.398	0.16905	-9.9403	-2.257	21.4509	-34.5333	863.0368	-43.0435	343.4119	57.3055	858.2483	-0.0592	0.0182	-0.0073	-0.0462	0.0165	0.9585
5.134	-3.3328	19.3074	0.2256	-6.9803	-1.3026	15.1466	-34.5909	888.3795	-43.3399	353.9317	56.7206	876.3516	-0.0592	0.0182	-0.0073	-0.0462	0.0165	0.9585
5.151	-1.0863	11.8169	0.2387	-4.258	-0.61341	9.3835	-30.4849	906.1756	-45.1688	361.1631	55.9916	886.015	-0.0592	0.0182	-0.0073	-0.0462	0.0165	0.9585
5.168	0.3203	6.0359	0.18165	-2.1664	-0.10408	4.9743	-23.8027	913.4768	-48.1315	363.8666	55.3766	885.1736	-0.0592	0.0182	-0.0073	-0.0462	0.0165	0.9585
5.185	1.0531	2.2777	0.10396	-0.80765	0.21938	2.154	-16.8131	910.2162	-51.3754	362.0658	54.9817	874.5079	-0.0592	0.0182	-0.0073	-0.0462	0.0165	0.9585
5.202	1.3326	0.26204	0.034181	-0.074451	0.38891	0.69648	-11.3324	898.4168	-54.0473	356.6766	54.7409	856.4657	-0.0592	0.0182	-0.0073	-0.0462	0.0165	0.9585
5.219	1.3465	-0.4988	-0.024396	0.20883	0.45406	0.19577	-7.9836	881.3134	-55.6548	349.0895	54.4427	834.3073	-0.0592	0.0182	-0.0073	-0.0462	0.0165	0.9585
5.236	1.2386	-0.49686	-0.058122	0.21395	0.44537	0.2678	-6.3044	862.5452	-56.2294	340.8173	53.9064	811.3747	-0.0592	0.0182	-0.0073	-0.0462	0.0165	0.9585
5.253	1.1009	-0.14344	-0.064844	0.082505	0.39326	0.59172	-5.317	845.3359	-56.1175	333.1821	53.0317	790.4322	-0.0592	0.0182	-0.0073	-0.0462	0.0165	0.9585
5.27	0.9745	0.29106	-0.04532	-0.086747	0.32006	0.96275	-3.9957	831.9034	-55.6262	327.1085	51.6749	773.2023	-0.0592	0.0182	-0.0073	-0.0462	0.0165	0.9585
5.287	0.86206	0.61213	0.017978	-0.2175	0.21548	1.2271	-1.5898	823.3233	-54.9294	323.068	49.6985	760.3557	-0.0592	0.0182	-0.0073	-0.0462	0.0165	0.9585
5.304	0.75559	0.65222	0.14005	-0.24244	0.063662	1.2147	2.2143	819.8013	-54.1459	321.1649	47.102	751.844	-0.0592	0.0182	-0.0073	-0.0462	0.0165	0.9585
5.321	0.64177	0.24097	0.33401	-0.088987	-0.15954	0.73197	7.2563	820.9483	-53.3962	321.2314	44.0665	747.2063	-0.0592	0.0182	-0.0073	-0.0462	0.0165	0.9585
5.338	0.50662	-0.78599	0.6128	0.31063	-0.49351	-0.40561	13.0457	825.9203	-52.7875	322.8927	40.8897	745.6969	-0.0592	0.0182	-0.0073	-0.0462	0.0165	0.9585
5.355	0.34969	-2.5304	0.96389	0.99739	-0.94243	-2.3116	18.9246	833.6353	-52.3931	325.6637	37.9101	746.457	-0.0592	0.0182	-0.0073	-0.0462	0.0165	0.9585
5.372	0.19961	-4.9471	1.3307	1.9474	-1.436	-4.9604	24.2761	842.9967	-52.2162	329.0503	35.391	748.6571	-0.0592	0.0182	-0.0073	-0.0462	0.0165	0.9585
5.389	0.10909	-7.6574	1.5671	3.0034	-1.7785	-7.9562	28.6914	852.906	-52.1805	332.5667	33.4308	751.4763	-0.0592	0.0182	-0.0073	-0.0462	0.0165	0.9585
5.406	0.1809	-9.7076	1.3954	3.7806	-1.6009	-10.2644	32.0187	862.0859	-52.2228	335.673	32.0332	753.9121	-0.0592	0.0182	-0.0073	-0.0462	0.0165	0.9585
5.423	0.58018	-9.287	0.37914	3.5573	-0.33063	-9.9032	34.267	869.0612	-52.3011	337.7613	31.1466	754.7879	-0.0592	0.0182	-0.0073	-0.0462	0.0165	0.9585
5.44	1.5477	-3.5313	-2.0614	1.2043	2.7953	-3.7267	35.4304	872.3159	-52.4122	338.2211	30.7483	752.9318	-0.0592	0.0182	-0.0073	-0.0462	0.0165	0.9585
5.457	3.345	11.3756	-6.5249	-4.7715	8.5773	12.4788	35.4345	870.3488	-52.5987	336.4668	30.8825	747.2105	-0.0592	0.0182	-0.0073	-0.0462	0.0165	0.9585
5.474	6.1336	39.5017	-13.3655	-15.9463	17.5036	43.2323	34.1783	861.7385	-52.85	331.969	31.5601	736.5471	-0.0592	0.0182	-0.0073	-0.0462	0.0165	0.9585
5.491	9.7652	83.5204	-22.1923	-33.3217	29.0962	91.5607	31.6152	845.2525	-53.0104	324.3021	32.6523	719.9886	-0.0592	0.0182	-0.0073	-0.0462	0.0165	0.9585
5.508	12.842	142.3097	-31.2163	-56.356	40.8247	156.3552	27.856	819.9992	-52.787	313.2008	33.8681	696.7873	-0.0592	0.0182	-0.0073	-0.0462	0.0165	0.9585
5.525	11.7606	209.378	-36.7522	-82.3254	47.2441	230.6751	23.2304	785.6225	-51.8027	298.6318	34.7836	666.5447	-0.0592	0.0182	-0.0073	-0.0462	0.0165	0.9585
5.542	5.326	276.2531	-35.5642	-107.7561	44.2855	305.4146	18.3052	742.3399	-49.6998	280.8064	34.9093	629.2338	-0.0592	0.0182	-0.0073	-0.0462	0.0165	0.9585
5.559	-4.0184	335.8985	-27.6696	-129.9206	32.7781	372.5477	13.6798	690.8252	-46.2902	260.1053	33.8838	585.2002	-0.0592	0.0182	-0.0073	-0.0462	0.0165	0.9585
5.576	-13.3002	384.1158	-15.4117	-147.3637	16.4621	426.6981	9.7934	632.1481	-41.601	237.0256	31.5812	535.1779	-0.0592	0.0182	-0.0073	-0.0462	0.0165	0.9585
5.593	-20.8405	422.577	-1.9917	-160.9316	-0.44398	469.2891	6.7856	567.9342	-35.8096	212.2217	28.1022	480.4758	-0.0592	0.0182	-0.0073	-0.0462	0.0165	0.9585
5.61	-26.4882	456.7349	9.4369	-172.924	-14.3897	506.3517	4.5012	500.2994	-29.2462	186.4728	23.7681	422.9162	-0.0592	0.0182	-0.0073	-0.0462	0.0165	0.9585
5.627	-30.4989	491.2618	17.1168	-185.2678	-23.5271	543.0948	2.6285	431.7944	-22.3763	160.6737	19.0515	364.7552	-0.0592	0.0182	-0.0073	-0.0462	0.0165	0.9585
5.644	-33.0836	528.3237	21.3592	-198.7729	-28.2878	581.9014	0.8637	365.2484	-15.7307	135.7995	14.4618	308.4635	-0.0592	0.0182	-0.0073	-0.0462	0.0165	0.9585
5.661	-34.6239	568.1982	23.9573	-213.3914	-30.8035	623.1242	-0.92761	303.2957	-9.8908	112.7422	10.4795	256.2744	-0.0592	0.0182	-0.0073	-0.0462	0.0165	0.9585
5.678	-35.7214	610.1841	27.0674	-228.6643	-33.6743	666.0868	-2.7181	247.8463	-5.4047	92.1339	7.506	209.7359	-0.0592	0.0182	-0.0073	-0.0462	0.0165	0.9585
5.695	-36.8651	653.4288	31.9007	-244.1595	-38.4168	709.8877	-4.4127	199.8829	-2.585	74.2891	5.7433	169.5713	-0.0592	0.0182	-0.0073	-0.0462	0.0165	0.9585
5.712	-38.1747	697.1764	38.0144	-259.6373	-44.612	753.6339	-5.991	159.5611	-1.471	59.2458	5.2203	135.7881	-0.0592	0.0182	-0.0073	-0.0462	0.0165	0.9585
5.729	-39.4707	740.1603	43.9216	-274.776	-50.6137	795.8882	-7.5448	126.4537	-1.7701	46.8552	5.7623	107.952	-0.0592	0.0182	-0.0073	-0.0462	0.0165	0.9585
5.746	-40.4257	780.0123	48.3229	-288.8486	-54.9337	834.1043	-9.2331	99.8106	-2.9327	36.8646	7.0263	85.4203	-0.0592	0.0182	-0.0073	-0.0462	0.0165	0.9585
5.763	-40.7168	813.6836	50.7975	-300.8049	-57.0276	865.142	-11.1234	78.7232	-4.4016	28.9613	8.6267	67.4505	-0.0592	0.0182	-0.0073	-0.0462	0.0165	0.9585
5.78	-40.1232	838.6651	51.6437	-309.7152	-57.1667	886.5523	-13.108	62.2068	-5.7661	22.7909	10.2203	53.2549	-0.0592	0.0182	-0.0073	-0.0462	0.0165	0.9585
5.797	-38.5363	853.9826	51.4359	-315.1633	-55.9626	897.5449	-14.9555	49.2744	-6.7787	17.9845	11.5275	42.0497	-0.0592	0.0182	-0.0073	-0.0462	0.0165	0.9585
5.814	-35.9909	860.3926	50.7286	-317.3402	-54.0342	899.1247	-16.3012	38.9538	-7.2966	14.1721	12.2947	33.0731	-0.0592	0.0182	-0.0073	-0.0462	0.0165	0.9585
5.831	-32.6784	859.8479	49.8776	-316.8758	-51.8156	893.5042	-16.6465	30.3389	-7.2245	11.0045	12.255	25.617	-0.0592	0.0182	-0.0073	-0.0462	0.0165	0.9585
5.848	-28.8909	854.7825	48.9623	-314.6002	-49.461	883.3582	-15.4566	22.6456	-6.4898	8.1868	11.1437	19.0362	-0.0592	0.0182	-0.0073	-0.0462	0.0165	0.9585
5.865	-24.9165	847.4728	47.9282	-311.3173	-46.9635	871.1286	-12.5338	15.4631	-5.1199	5.5674	8.9009	12.9633	-0.0592	0.0182	-0.0073	-0.0462	0.0165	0.9585
